<?xml version="1.0" standalone="no"?>
<!DOCTYPE svg PUBLIC "-//W3C//DTD SVG 20010904//EN"
 "http://www.w3.org/TR/2001/REC-SVG-20010904/DTD/svg10.dtd">
<svg version="1.0" xmlns="http://www.w3.org/2000/svg"
 width="512.000000pt" height="512.000000pt" viewBox="0 0 512.000000 512.000000"
 preserveAspectRatio="xMidYMid meet">

<g transform="translate(0.000000,512.000000) scale(0.100000,-0.100000)"
fill="#000000" stroke="none">
<path d="M1947 5109 c-377 -36 -794 -204 -1117 -447 -97 -73 -299 -275 -372
-372 -139 -185 -280 -451 -349 -660 -222 -678 -101 -1398 334 -1990 86 -116
282 -314 396 -400 248 -187 573 -338 856 -400 565 -122 1152 -21 1620 279 l80
51 555 -553 c595 -593 590 -589 715 -610 123 -21 239 18 335 113 95 94 135
216 112 340 -23 123 -18 118 -608 710 l-553 555 50 78 c216 339 329 732 329
1147 0 329 -63 616 -203 915 -116 251 -242 432 -431 621 -458 457 -1099 685
-1749 623z m431 -794 c238 -36 432 -119 627 -271 262 -203 444 -489 512 -804
26 -121 26 -449 0 -570 -56 -259 -172 -474 -365 -672 -203 -209 -430 -337
-702 -395 -121 -26 -449 -26 -570 0 -315 68 -601 250 -804 512 -195 251 -286
520 -286 842 1 379 134 699 404 969 216 216 462 343 751 389 111 18 316 18
433 0z"/>
</g>
</svg>
