<svg version="1.0" xmlns="http://www.w3.org/2000/svg" width="512.000000ptpx" height="512.000000ptpx" viewBox="0 0 512.000000 512.000000" preserveAspectRatio="xMidYMid meet" transform="rotate(0) scale(1, 1)">

<g transform="translate(0.000000,512.000000) scale(0.100000,-0.100000)" fill="#6a6f76" stroke="none">
<path d="M2335 4944 c-600 -81 -1106 -449 -1367 -994 -49 -103 -110 -286 -132&#10;-395 -32 -160 -36 -266 -36 -915 l0 -655 -57 -30 c-182 -95 -347 -288 -426&#10;-499 -26 -70 -30 -94 -30 -176 0 -107 20 -178 74 -262 64 -99 186 -182 307&#10;-207 35 -7 234 -11 581 -11 l527 0 13 -53 c72 -283 326 -514 629 -573 386 -74&#10;778 160 899 536 l28 90 535 0 c597 1 612 3 724 70 154 93 251 282 231 454 -25&#10;228 -243 527 -462 634 l-53 26 0 656 c0 666 -4 755 -40 928 -52 250 -180 523&#10;-338 722 -65 81 -215 231 -297 295 -369 290 -850 422 -1310 359z"/>
</g>
</svg>